<?xml version="1.0" encoding="UTF-8"?>
<svg width="209px" height="23px" viewBox="0 0 209 23" version="1.1" xmlns="http://www.w3.org/2000/svg" xmlns:xlink="http://www.w3.org/1999/xlink">
    <!-- Generator: Sketch 55.2 (78181) - https://sketchapp.com -->
    <title>Group</title>
    <desc>Created with Sketch.</desc>
    <g id="Page-1" stroke="none" stroke-width="1" fill="none" fill-rule="evenodd">
        <g id="Group" transform="translate(0.614719, -0.294293)" fill="#000000">
            <g id="Navetat" transform="translate(104.875633, 1.357734)">
                <path d="M2.64636678,21.5279644 C0.0750777138,20.6207378 -0.919648849,7.51937066 1.00964803,6.13694879 C2.9389449,4.75452691 8.97234334,17.0299175 10.422148,16.0437847 C11.8719527,15.0576519 8.41487481,1.0172801 12.2311324,0.0890972236 C16.04739,-0.839085656 16.7022262,16.1025738 13.5854293,19.5234722 C10.4686324,22.9443707 4.08074178,11.8875347 3.36355428,12.7041363 C2.64636678,13.5207378 5.21765584,22.435191 2.64636678,21.5279644 Z" id="Path-10"></path>
                <path d="M29.9407027,12.6687847 C30.9301898,11.6025725 20.759109,5.58191363 19.7430213,15.7592359 C18.7269335,25.9365582 28.2635543,17.3223003 29.9407027,17.0051128 C31.6178512,16.6879253 32.3504683,20.0510113 33.1705855,19.1674175 C33.9907027,18.2838238 32.7785933,13.7996441 30.6893355,13.7996441 C28.6000777,13.7996441 21.7440341,19.7966578 22.8776329,14.7744046 C24.0112318,9.7521513 28.9512157,13.7349969 29.9407027,12.6687847 Z" id="Path-11"></path>
                <path d="M43.831546,9.39325521 C42.4676788,8.73180338 41.6451949,16.1318388 40.1580043,16.897296 C38.6708137,17.6627532 37.5897524,14.4405282 36.8534952,14.4405282 C36.117238,14.4405282 38.0557418,20.940855 41.6451949,20.1267925 C45.234648,19.31273 45.1954132,10.054707 43.831546,9.39325521 Z" id="Path-12"></path>
                <path d="M58.0334762,17.8608579 C56.7031426,17.5411163 51.5809972,19.8447521 51.3570639,16.4985983 C51.1331306,13.1524444 52.8460637,14.0093405 52.4634766,14.9855274 C52.0808894,15.9617143 49.6899966,15.2413116 50.2284581,16.2545328 C50.7669197,17.2677539 55.2639149,16.574019 55.5097832,14.2766181 C55.7556516,11.9792173 48.509648,7.25915554 48.509648,16.0536591 C48.509648,24.8481626 59.3638097,18.1805995 58.0334762,17.8608579 Z" id="Path-13" fill-rule="nonzero"></path>
                <path d="M64.3063246,5.04440022 C62.4933948,3.53511984 63.9368985,22.4721797 66.1042813,21.1001094 C68.2716641,19.728039 66.1192543,6.55368059 64.3063246,5.04440022 Z" id="Path-14"></path>
                <path d="M60.563872,13.4627288 C60.7047971,12.7361385 70.8941544,10.9207102 71.2554825,12.2504963 C71.5499043,13.3340488 62.7212817,15.884033 61.9574056,15.7544776 C60.9254044,15.5794476 60.3169308,14.7359229 60.563872,13.4627288 Z" id="Path-15"></path>
                <path d="M81.9453602,11.9116602 C82.2756336,10.4591212 73.509648,9.70021709 73.509648,16.5916933 C73.509648,23.4831695 79.7434822,18.0951488 81.0297051,17.8255424 C82.3159281,17.5559361 84.4820789,21.1223423 85.255907,20.3253321 C86.0297352,19.5283219 83.3603992,15.679043 81.4943836,15.3872462 C79.628368,15.0954493 76.5405525,17.8907918 76.919654,15.1200887 C77.2987556,12.3493856 81.6150867,13.3641993 81.9453602,11.9116602 Z" id="Path-16"></path>
                <path d="M90.6027783,3.94347658 C87.7914501,4.35128908 91.5699658,21.2926953 93.4141064,21.2926953 C95.258247,21.2926953 93.4141064,3.53566408 90.6027783,3.94347658 Z" id="Path-17"></path>
                <path d="M86.5277333,10.0753088 C87.6902183,9.01724091 106.169689,8.020426 102.117692,9.629801 C101.50013,9.87508486 88.3894371,11.7765558 87.6425921,11.7765558 C86.81749,11.7765558 86.2873796,10.2940734 86.5277333,10.0753088 Z" id="Path-18"></path>
            </g>
            <g id="Vincent" transform="translate(0.000000, 0.000000)">
                <path d="M0.23764998,3.232445 C-0.278619975,3.90709158 3.17083975,18.972033 4.06159594,20.960313 C5.05008379,23.1667424 8.14556056,23.1332838 8.58392446,22.4666499 C11.9496236,17.3483248 10.8077732,-0.828103068 8.58392446,0.50372833 C8.11899006,0.782170937 8.46288078,15.2407094 5.76456615,18.1501025 C4.52732067,19.4841328 1.83644936,1.14318039 0.23764998,3.232445 Z" id="Path"></path>
                <path d="M17.8401613,16.5709272 C15.232886,17.762781 16.5740502,22.0322361 18.0281895,21.3694862 C19.4823288,20.7067362 20.4474366,15.3790734 17.8401613,16.5709272 Z" id="Path-2"></path>
                <path d="M17.1828978,11.9954759 C18.9045585,10.4978814 20.2199493,12.864948 19.0173216,14.0049626 C17.814694,15.1449773 15.461237,13.4930703 17.1828978,11.9954759 Z" id="Path-3"></path>
                <path d="M28.9303184,11.7163139 C22.9273887,10.7088225 24.2455039,21.4849324 26.1754356,21.4919653 C28.1053672,21.4989775 25.7580362,14.4030246 29.1608682,15.5155734 C32.5637003,16.6281222 31.7535606,20.5508635 32.9339805,21.0357268 C34.1144004,21.5205901 34.9332481,12.7238054 28.9303184,11.7163139 Z" id="Path-4"></path>
                <path d="M46.5754794,13.8039773 C47.0282382,12.6172097 39.6070956,10.0619119 38.4880771,16.5154031 C37.3690585,22.9688943 45.7551669,22.0107644 45.7551669,20.7820046 C45.7551669,19.5532449 40.8550204,21.2576964 41.6072177,17.1413634 C42.359415,13.0250303 46.1227206,14.9907449 46.5754794,13.8039773 Z" id="Path-5"></path>
                <path d="M60.9216632,19.6239064 C61.6142902,20.5499318 49.3821125,24.2486623 49.9491291,17.640508 C50.5161457,11.0323537 59.4822101,11.5773115 59.1119709,15.0511525 C58.7417316,18.5249936 52.3797931,18.6597951 52.3797931,17.3953908 C52.3797931,16.1309865 54.6458717,17.124883 55.15555,16.4617971 C55.6652283,15.7987111 53.7629718,15.2780813 53.4116535,18.2695363 C53.0603351,21.2609914 60.2290363,18.6978811 60.9216632,19.6239064 Z" id="Path-6" fill-rule="nonzero"></path>
                <path d="M69.1057403,12.8726618 C75.3336211,13.0909723 74.4553008,21.4643122 72.9168242,21.8511449 C71.3783477,22.2379776 72.3521758,15.7806208 68.9683867,15.7806208 C65.5845977,15.7806208 66.5687774,21.6811823 65.7220977,21.2184137 C64.875418,20.7556452 62.8778594,12.6543512 69.1057403,12.8726618 Z" id="Path-7"></path>
                <path d="M79.175872,5.41242005 C78.4462489,4.65476878 77.3683212,6.01453042 77.3683212,7.94602456 C77.3683212,9.8775187 79.8629633,22.2125486 80.8272724,21.860465 C82.0592531,21.4106505 80.5359306,6.82472473 79.175872,5.41242005 Z" id="Path-8"></path>
                <path d="M89.6320657,13.0385054 C89.2977953,12.1346086 79.3848298,12.3241419 78.9103637,12.8872373 C78.4625855,13.4186594 78.6498026,14.9205755 78.9103637,14.9205755 C83.3310288,14.9205755 89.9041339,13.7742018 89.6320657,13.0385054 Z" id="Path-9"></path>
            </g>
        </g>
    </g>
</svg>