<?xml version="1.0" encoding="UTF-8"?>
<svg width="208px" height="25px" viewBox="0 0 208 25" version="1.1" xmlns="http://www.w3.org/2000/svg" xmlns:xlink="http://www.w3.org/1999/xlink">
    <!-- Generator: Sketch 55 (78076) - https://sketchapp.com -->
    <title>Group</title>
    <desc>Created with Sketch.</desc>
    <g id="Page-1" stroke="none" stroke-width="1" fill="none" fill-rule="evenodd">
        <g id="Group" transform="translate(-0.385281, -0.294293)" fill="#000000">
            <g id="Navetat" transform="translate(102.875633, 2.357734)">
                <path d="M2.64636678,21.5279644 C0.0750777138,20.6207378 -0.919648849,7.51937066 1.00964803,6.13694879 C2.9389449,4.75452691 8.97234334,17.0299175 10.422148,16.0437847 C11.8719527,15.0576519 7.64148396,1.5730816 12.2311324,0.0890972236 C16.8207808,-1.39488715 16.7022262,16.1025738 13.5854293,19.5234722 C10.4686324,22.9443707 4.08074178,11.8875347 3.36355428,12.7041363 C2.64636678,13.5207378 5.21765584,22.435191 2.64636678,21.5279644 Z" id="Path-10"></path>
                <path d="M29.9407027,12.6687847 C30.9434371,11.0713238 18.7963668,7.20550347 19.5969527,16.4398785 C20.3975387,25.6742535 28.2635543,17.3223003 29.9407027,17.0051128 C31.6178512,16.6879253 32.3504683,20.0510113 33.1705855,19.1674175 C33.9907027,18.2838238 32.7785933,13.7996441 30.6893355,13.7996441 C28.6000777,13.7996441 22.4910933,20.8955556 22.4910933,15.6320791 C22.4910933,10.3686025 28.9379683,14.2662457 29.9407027,12.6687847 Z" id="Path-11"></path>
                <path d="M43.8707808,7.90784722 C42.9194137,7.90784722 42.9194137,16.9228863 40.5449996,17.2271832 C38.1705855,17.53148 37.9625777,12.9191753 37.2090621,14.5574566 C36.4555465,16.1957378 38.0557418,20.940855 41.6451949,20.1267925 C45.234648,19.31273 44.822148,7.90784722 43.8707808,7.90784722 Z" id="Path-12"></path>
                <path d="M58.5699996,18.99398 C57.2396661,18.6742384 52.1175206,20.9778743 51.8935873,17.6317204 C51.669654,14.2855666 53.3825871,15.1424626 53,16.1186495 C52.6174129,17.0948364 50.22652,16.3744338 50.7649816,17.3876549 C51.3034431,18.4008761 55.8004383,17.7071411 56.0463067,15.4097403 C56.2921751,13.1123394 49.0461715,8.39227767 49.0461715,17.1867812 C49.0461715,25.9812847 59.9003331,19.3137216 58.5699996,18.99398 Z" id="Path-13" fill-rule="nonzero"></path>
                <path d="M64.7012496,3.94905816 C62.5276168,2.24241754 64.3318235,21.3768376 66.4992063,20.0047673 C68.6665891,18.632697 66.8748824,5.65569879 64.7012496,3.94905816 Z" id="Path-14"></path>
                <path d="M60.9594137,12.3344878 C61.1003388,11.6078975 71.2896961,9.79246924 71.6510242,11.1222553 C71.945446,12.2058078 63.1168234,14.755792 62.3529473,14.6262366 C61.3209461,14.4512066 60.7124725,13.607682 60.9594137,12.3344878 Z" id="Path-15"></path>
                <path d="M84.3430465,12.563316 C84.6733199,11.1107769 75.9073343,10.3518728 75.9073343,17.243349 C75.9073343,24.1348252 82.1411685,18.7468046 83.4273914,18.4771982 C84.7136144,18.2075918 86.8797652,21.7739981 87.6535933,20.9769878 C88.4274215,20.1799776 85.7580855,16.3306988 83.8920699,16.0389019 C82.0260543,15.747105 78.9382388,18.5424476 79.3173403,15.7717445 C79.6964419,13.0010413 84.012773,14.015855 84.3430465,12.563316 Z" id="Path-16"></path>
                <path d="M93.3489058,3.56019097 C90.5375777,3.96800347 94.3160933,20.9094097 96.160234,20.9094097 C98.0043746,20.9094097 96.160234,3.15237847 93.3489058,3.56019097 Z" id="Path-17"></path>
                <path d="M89.3139599,10.300816 C90.4764449,9.24274806 108.955915,8.24593316 104.903919,9.85530816 C104.286357,10.100592 91.1756637,12.002063 90.4288187,12.002063 C89.6037166,12.002063 89.0736062,10.5195806 89.3139599,10.300816 Z" id="Path-18"></path>
            </g>
            <g id="Vincent" transform="translate(0.000000, 0.000000)">
                <path d="M9.00032034,1.29429264 C6.94435246,-3.03426639 8.67065454,16.783876 5.98684378,19.316211 C3.30303302,21.8485461 1.13905214,-0.940733402 0.569526072,4.27215722 C5.32907052e-15,9.48504785 4.16566323,27.2602215 7.22035073,25 C10.2750382,22.7397785 11.0562882,5.62285167 9.00032034,1.29429264 Z" id="Path"></path>
                <path d="M16.0815703,16.1268122 C14.3623321,17.3428766 17.2964141,21.5225641 18.5696075,20.5965387 C19.8428008,19.6705133 17.8008086,14.9107477 16.0815703,16.1268122 Z" id="Path-2"></path>
                <path d="M15.5551842,11.3482477 C16.8828399,10.0447809 18.4638764,12.0181696 17.2612488,13.1581842 C16.0586211,14.2981989 14.2275286,12.6517145 15.5551842,11.3482477 Z" id="Path-3"></path>
                <path d="M26.7405059,10.9536396 C20.7375762,9.94614811 22.7368438,20.7292806 23.9856231,20.7292806 C25.2344024,20.7292806 23.7046966,12.8596735 27.1075286,13.9722223 C30.5103606,15.0847712 29.5637481,19.7881891 30.744168,20.2730524 C31.9245879,20.7579157 32.7434356,11.961131 26.7405059,10.9536396 Z" id="Path-4"></path>
                <path d="M44.1474883,14.1731989 C44.6002471,12.9864313 37.3805205,10.8168756 36.261502,17.2703669 C35.1424834,23.7238581 43.3271758,22.379986 43.3271758,21.1512262 C43.3271758,19.9224665 38.2308623,21.8401911 38.9830596,17.7238581 C39.7352569,13.6075251 43.6947295,15.3599665 44.1474883,14.1731989 Z" id="Path-5"></path>
                <path d="M59.4809844,20.8924372 C60.1736114,21.8184626 47.9414336,25.517193 48.5084502,18.9090387 C49.0754668,12.3008844 58.0415313,12.8458422 57.671292,16.3196833 C57.3010528,19.7935243 50.9391143,19.9283258 50.9391143,18.6639215 C50.9391143,17.3995172 53.2051928,18.3934137 53.7148711,17.7303278 C54.2245494,17.0672419 52.322293,16.546612 51.9709746,19.5380671 C51.6196563,22.5295221 58.7883575,19.9664118 59.4809844,20.8924372 Z" id="Path-6" fill-rule="nonzero"></path>
                <path d="M67.1057403,13.8726618 C73.3336211,14.0909723 72.4553008,22.4643122 70.9168242,22.8511449 C69.3783477,23.2379776 70.3521758,16.7806208 66.9683867,16.7806208 C63.5845977,16.7806208 64.5687774,22.6811823 63.7220977,22.2184137 C62.875418,21.7556452 60.8778594,13.6543512 67.1057403,13.8726618 Z" id="Path-7"></path>
                <path d="M78.1739714,6.37414322 C75.8588198,7.77213285 79.2571423,23.2913708 80.4891231,22.8415563 C81.7211038,22.3917419 80.4891231,4.97615358 78.1739714,6.37414322 Z" id="Path-8"></path>
                <path d="M90.4194228,14.0195968 C90.1238596,12.5486937 78.0837252,13.5234394 78.3910661,15.0883727 C78.698407,16.653306 90.714986,15.4904999 90.4194228,14.0195968 Z" id="Path-9"></path>
            </g>
        </g>
    </g>
</svg>