<?xml version="1.0" encoding="UTF-8"?>
<svg width="208px" height="25px" viewBox="0 0 208 25" version="1.1" xmlns="http://www.w3.org/2000/svg" xmlns:xlink="http://www.w3.org/1999/xlink">
    <!-- Generator: Sketch 55.1 (78136) - https://sketchapp.com -->
    <title>Group</title>
    <desc>Created with Sketch.</desc>
    <g id="Page-1" stroke="none" stroke-width="1" fill="none" fill-rule="evenodd">
        <g id="Group" transform="translate(0.614719, -0.294293)" fill="#000000">
            <g id="Navetat" transform="translate(102.875633, 2.357734)">
                <path d="M2.64636678,21.5279644 C0.0750777138,20.6207378 -0.919648849,7.51937066 1.00964803,6.13694879 C2.9389449,4.75452691 8.97234334,17.0299175 10.422148,16.0437847 C11.8719527,15.0576519 7.64148396,1.5730816 12.2311324,0.0890972236 C16.8207808,-1.39488715 16.7022262,16.1025738 13.5854293,19.5234722 C10.4686324,22.9443707 4.08074178,11.8875347 3.36355428,12.7041363 C2.64636678,13.5207378 5.21765584,22.435191 2.64636678,21.5279644 Z" id="Path-10"></path>
                <path d="M29.9407027,12.6687847 C30.9434371,11.0713238 18.7963668,7.20550347 19.5969527,16.4398785 C20.3975387,25.6742535 28.2635543,17.3223003 29.9407027,17.0051128 C31.6178512,16.6879253 32.3504683,20.0510113 33.1705855,19.1674175 C33.9907027,18.2838238 32.7785933,13.7996441 30.6893355,13.7996441 C28.6000777,13.7996441 22.4910933,20.8955556 22.4910933,15.6320791 C22.4910933,10.3686025 28.9379683,14.2662457 29.9407027,12.6687847 Z" id="Path-11"></path>
                <path d="M43.8707808,7.90784722 C42.9194137,7.90784722 42.9194137,16.9228863 40.5449996,17.2271832 C38.1705855,17.53148 37.9625777,12.9191753 37.2090621,14.5574566 C36.4555465,16.1957378 38.0557418,20.940855 41.6451949,20.1267925 C45.234648,19.31273 44.822148,7.90784722 43.8707808,7.90784722 Z" id="Path-12"></path>
                <path d="M58.0334762,17.8608579 C56.7031426,17.5411163 51.5809972,19.8447521 51.3570639,16.4985983 C51.1331306,13.1524444 52.8460637,14.0093405 52.4634766,14.9855274 C52.0808894,15.9617143 49.6899966,15.2413116 50.2284581,16.2545328 C50.7669197,17.2677539 55.2639149,16.574019 55.5097832,14.2766181 C55.7556516,11.9792173 48.509648,7.25915554 48.509648,16.0536591 C48.509648,24.8481626 59.3638097,18.1805995 58.0334762,17.8608579 Z" id="Path-13" fill-rule="nonzero"></path>
                <path d="M64.7012496,3.94905816 C62.5276168,2.24241754 64.3318235,21.3768376 66.4992063,20.0047673 C68.6665891,18.632697 66.8748824,5.65569879 64.7012496,3.94905816 Z" id="Path-14"></path>
                <path d="M60.9594137,12.3344878 C61.1003388,11.6078975 71.2896961,9.79246924 71.6510242,11.1222553 C71.945446,12.2058078 63.1168234,14.755792 62.3529473,14.6262366 C61.3209461,14.4512066 60.7124725,13.607682 60.9594137,12.3344878 Z" id="Path-15"></path>
                <path d="M82.9453602,11.9116602 C83.2756336,10.4591212 74.509648,9.70021709 74.509648,16.5916933 C74.509648,23.4831695 80.7434822,18.0951488 82.0297051,17.8255424 C83.3159281,17.5559361 85.4820789,21.1223423 86.255907,20.3253321 C87.0297352,19.5283219 84.3603992,15.679043 82.4943836,15.3872462 C80.628368,15.0954493 77.5405525,17.8907918 77.919654,15.1200887 C78.2987556,12.3493856 82.6150867,13.3641993 82.9453602,11.9116602 Z" id="Path-16"></path>
                <path d="M92.3489058,3.56019097 C89.5375777,3.96800347 93.3160933,20.9094097 95.160234,20.9094097 C97.0043746,20.9094097 95.160234,3.15237847 92.3489058,3.56019097 Z" id="Path-17"></path>
                <path d="M88.3139599,10.300816 C89.4764449,9.24274806 107.955915,8.24593316 103.903919,9.85530816 C103.286357,10.100592 90.1756637,12.002063 89.4288187,12.002063 C88.6037166,12.002063 88.0736062,10.5195806 88.3139599,10.300816 Z" id="Path-18"></path>
            </g>
            <g id="Vincent" transform="translate(0.000000, 0.000000)">
                <path d="M8.93757096,1.00991998 C5.26869162,-3.59847845 8.54244202,15.4516762 5.85863126,17.9840112 C3.17482049,20.5163463 2.30629406,1.00991998 0.506776693,3.98778457 C-1.29274067,6.96564915 4.10291385,26.9758488 7.15760135,24.7156273 C10.2122888,22.4554059 12.6064503,5.61831842 8.93757096,1.00991998 Z" id="Path"></path>
                <path d="M16.0815703,17.1268122 C14.3623321,18.3428766 16.3905964,22.4930231 18.5696075,21.5965387 C20.7486186,20.7000544 17.8008086,15.9107477 16.0815703,17.1268122 Z" id="Path-2"></path>
                <path d="M15.5551842,12.3482477 C17.276845,10.8506532 18.5922357,13.2177198 17.3896081,14.3577345 C16.1869804,15.4977491 13.8335235,13.8458422 15.5551842,12.3482477 Z" id="Path-3"></path>
                <path d="M27.7626031,12.3607775 C21.7596734,11.353286 23.0777886,22.1293959 25.0077202,22.1364889 C26.9376519,22.143441 24.7267937,14.8586191 28.1296258,15.9711679 C31.5324578,17.0837168 30.5858452,21.1953271 31.7662652,21.6801903 C32.9466851,22.1650536 33.7655327,13.3682689 27.7626031,12.3607775 Z" id="Path-4"></path>
                <path d="M44.5754794,14.8039773 C45.0282382,13.6172097 37.6070956,11.0619119 36.4880771,17.5154031 C35.3690585,23.9688943 43.7551669,23.0107644 43.7551669,21.7820046 C43.7551669,20.5532449 38.8550204,22.2576964 39.6072177,18.1413634 C40.359415,14.0250303 44.1227206,15.9907449 44.5754794,14.8039773 Z" id="Path-5"></path>
                <path d="M59.3769443,20.3925504 C60.0695713,21.3185758 47.8373936,25.0173063 48.4044102,18.409152 C48.9714268,11.8009977 57.9374912,12.3459555 57.567252,15.8197965 C57.1970127,19.2936376 50.8350742,19.4284391 50.8350742,18.1640348 C50.8350742,16.8996305 53.1011528,17.893527 53.6108311,17.2304411 C54.1205094,16.5673551 52.2182529,16.0467252 51.8669346,19.0381803 C51.5156162,22.0296354 58.6843174,19.4665251 59.3769443,20.3925504 Z" id="Path-6" fill-rule="nonzero"></path>
                <path d="M67.1057403,13.8726618 C73.3336211,14.0909723 72.4553008,22.4643122 70.9168242,22.8511449 C69.3783477,23.2379776 70.3521758,16.7806208 66.9683867,16.7806208 C63.5845977,16.7806208 64.5687774,22.6811823 63.7220977,22.2184137 C62.875418,21.7556452 60.8778594,13.6543512 67.1057403,13.8726618 Z" id="Path-7"></path>
                <path d="M78.8377227,6.39351139 C78.1080996,5.63586012 77.30325,6.82334537 77.30325,8.75483951 C77.30325,10.6863337 79.524814,23.1936399 80.4891231,22.8415563 C81.7211038,22.3917419 80.1977813,7.80581608 78.8377227,6.39351139 Z" id="Path-8"></path>
                <path d="M90.4194228,14.0195968 C90.0509248,13.1156999 78.2589274,12.1613913 78.3910661,15.0883727 C78.5232048,18.0153541 90.7879208,14.9234936 90.4194228,14.0195968 Z" id="Path-9"></path>
            </g>
        </g>
    </g>
</svg>